<?xml version="1.0" encoding="utf-8"?>
<svg xmlns="http://www.w3.org/2000/svg" version="1.1" width="1020.0" height="1020.0">
 <text x="0" y="20">|I|=7</text>
 <polygon stroke="black" stroke-width="1" fill="none" points="10.0,758.7244897959183 18.92857142857143,873.5204081632653"/>
 <polygon stroke="black" stroke-width="1" fill="none" points="10.0,758.7244897959183 129.89795918367346,975.5612244897959"/>
 <polygon stroke="black" stroke-width="1" fill="none" points="10.0,758.7244897959183 143.92857142857142,911.7857142857143"/>
 <polygon stroke="black" stroke-width="1" fill="none" points="10.0,758.7244897959183 186.0204081632653,596.734693877551"/>
 <polygon stroke="black" stroke-width="1" fill="none" points="10.0,758.7244897959183 193.6734693877551,772.7551020408164"/>
 <polygon stroke="black" stroke-width="1" fill="none" points="10.0,758.7244897959183 300.81632653061223,725.5612244897959"/>
 <polygon stroke="black" stroke-width="1" fill="none" points="18.92857142857143,873.5204081632653 129.89795918367346,975.5612244897959"/>
 <polygon stroke="black" stroke-width="1" fill="none" points="18.92857142857143,873.5204081632653 143.92857142857142,911.7857142857143"/>
 <polygon stroke="black" stroke-width="1" fill="none" points="18.92857142857143,873.5204081632653 193.6734693877551,772.7551020408164"/>
 <polygon stroke="black" stroke-width="1" fill="none" points="18.92857142857143,873.5204081632653 230.66326530612244,999.795918367347"/>
 <polygon stroke="black" stroke-width="1" fill="none" points="18.92857142857143,873.5204081632653 257.44897959183675,979.3877551020408"/>
 <polygon stroke="black" stroke-width="1" fill="none" points="18.92857142857143,873.5204081632653 276.5816326530612,942.3979591836735"/>
 <polygon stroke="black" stroke-width="1" fill="none" points="18.92857142857143,873.5204081632653 300.81632653061223,725.5612244897959"/>
 <polygon stroke="black" stroke-width="1" fill="none" points="62.295918367346935,164.33673469387756 66.12244897959184,330.1530612244898"/>
 <polygon stroke="black" stroke-width="1" fill="none" points="62.295918367346935,164.33673469387756 149.03061224489795,10.0"/>
 <polygon stroke="black" stroke-width="1" fill="none" points="62.295918367346935,164.33673469387756 166.8877551020408,138.8265306122449"/>
 <polygon stroke="black" stroke-width="1" fill="none" points="62.295918367346935,164.33673469387756 252.3469387755102,187.29591836734693"/>
 <polygon stroke="black" stroke-width="1" fill="none" points="66.12244897959184,330.1530612244898 166.8877551020408,138.8265306122449"/>
 <polygon stroke="black" stroke-width="1" fill="none" points="66.12244897959184,330.1530612244898 186.0204081632653,596.734693877551"/>
 <polygon stroke="black" stroke-width="1" fill="none" points="66.12244897959184,330.1530612244898 252.3469387755102,187.29591836734693"/>
 <polygon stroke="black" stroke-width="1" fill="none" points="66.12244897959184,330.1530612244898 276.5816326530612,503.6224489795918"/>
 <polygon stroke="black" stroke-width="1" fill="none" points="66.12244897959184,330.1530612244898 370.96938775510205,345.4591836734694"/>
 <polygon stroke="black" stroke-width="1" fill="none" points="129.89795918367346,975.5612244897959 143.92857142857142,911.7857142857143"/>
 <polygon stroke="black" stroke-width="1" fill="none" points="129.89795918367346,975.5612244897959 193.6734693877551,772.7551020408164"/>
 <polygon stroke="black" stroke-width="1" fill="none" points="129.89795918367346,975.5612244897959 230.66326530612244,999.795918367347"/>
 <polygon stroke="black" stroke-width="1" fill="none" points="129.89795918367346,975.5612244897959 257.44897959183675,979.3877551020408"/>
 <polygon stroke="black" stroke-width="1" fill="none" points="129.89795918367346,975.5612244897959 276.5816326530612,942.3979591836735"/>
 <polygon stroke="black" stroke-width="1" fill="none" points="129.89795918367346,975.5612244897959 300.81632653061223,725.5612244897959"/>
 <polygon stroke="black" stroke-width="1" fill="none" points="129.89795918367346,975.5612244897959 342.90816326530614,1008.7244897959183"/>
 <polygon stroke="black" stroke-width="1" fill="none" points="129.89795918367346,975.5612244897959 362.0408163265306,989.5918367346939"/>
 <polygon stroke="black" stroke-width="1" fill="none" points="143.92857142857142,911.7857142857143 186.0204081632653,596.734693877551"/>
 <polygon stroke="black" stroke-width="1" fill="none" points="143.92857142857142,911.7857142857143 193.6734693877551,772.7551020408164"/>
 <polygon stroke="black" stroke-width="1" fill="none" points="143.92857142857142,911.7857142857143 230.66326530612244,999.795918367347"/>
 <polygon stroke="black" stroke-width="1" fill="none" points="143.92857142857142,911.7857142857143 257.44897959183675,979.3877551020408"/>
 <polygon stroke="black" stroke-width="1" fill="none" points="143.92857142857142,911.7857142857143 276.5816326530612,942.3979591836735"/>
 <polygon stroke="black" stroke-width="1" fill="none" points="143.92857142857142,911.7857142857143 300.81632653061223,725.5612244897959"/>
 <polygon stroke="black" stroke-width="1" fill="none" points="143.92857142857142,911.7857142857143 342.90816326530614,1008.7244897959183"/>
 <polygon stroke="black" stroke-width="1" fill="none" points="143.92857142857142,911.7857142857143 362.0408163265306,989.5918367346939"/>
 <polygon stroke="black" stroke-width="1" fill="none" points="143.92857142857142,911.7857142857143 391.3775510204082,716.6326530612245"/>
 <polygon stroke="black" stroke-width="1" fill="none" points="149.03061224489795,10.0 166.8877551020408,138.8265306122449"/>
 <polygon stroke="black" stroke-width="1" fill="none" points="149.03061224489795,10.0 252.3469387755102,187.29591836734693"/>
 <polygon stroke="black" stroke-width="1" fill="none" points="149.03061224489795,10.0 447.5,13.826530612244898"/>
 <polygon stroke="black" stroke-width="1" fill="none" points="166.8877551020408,138.8265306122449 252.3469387755102,187.29591836734693"/>
 <polygon stroke="black" stroke-width="1" fill="none" points="166.8877551020408,138.8265306122449 370.96938775510205,345.4591836734694"/>
 <polygon stroke="black" stroke-width="1" fill="none" points="166.8877551020408,138.8265306122449 447.5,13.826530612244898"/>
 <polygon stroke="black" stroke-width="1" fill="none" points="186.0204081632653,596.734693877551 193.6734693877551,772.7551020408164"/>
 <polygon stroke="black" stroke-width="1" fill="none" points="186.0204081632653,596.734693877551 276.5816326530612,503.6224489795918"/>
 <polygon stroke="black" stroke-width="1" fill="none" points="186.0204081632653,596.734693877551 300.81632653061223,725.5612244897959"/>
 <polygon stroke="black" stroke-width="1" fill="none" points="186.0204081632653,596.734693877551 370.96938775510205,345.4591836734694"/>
 <polygon stroke="black" stroke-width="1" fill="none" points="186.0204081632653,596.734693877551 391.3775510204082,716.6326530612245"/>
 <polygon stroke="black" stroke-width="1" fill="none" points="186.0204081632653,596.734693877551 411.7857142857143,456.42857142857144"/>
 <polygon stroke="black" stroke-width="1" fill="none" points="193.6734693877551,772.7551020408164 230.66326530612244,999.795918367347"/>
 <polygon stroke="black" stroke-width="1" fill="none" points="193.6734693877551,772.7551020408164 257.44897959183675,979.3877551020408"/>
 <polygon stroke="black" stroke-width="1" fill="none" points="193.6734693877551,772.7551020408164 276.5816326530612,942.3979591836735"/>
 <polygon stroke="black" stroke-width="1" fill="none" points="193.6734693877551,772.7551020408164 276.5816326530612,503.6224489795918"/>
 <polygon stroke="black" stroke-width="1" fill="none" points="193.6734693877551,772.7551020408164 300.81632653061223,725.5612244897959"/>
 <polygon stroke="black" stroke-width="1" fill="none" points="193.6734693877551,772.7551020408164 342.90816326530614,1008.7244897959183"/>
 <polygon stroke="black" stroke-width="1" fill="none" points="193.6734693877551,772.7551020408164 362.0408163265306,989.5918367346939"/>
 <polygon stroke="black" stroke-width="1" fill="none" points="193.6734693877551,772.7551020408164 391.3775510204082,716.6326530612245"/>
 <polygon stroke="black" stroke-width="1" fill="none" points="230.66326530612244,999.795918367347 257.44897959183675,979.3877551020408"/>
 <polygon stroke="black" stroke-width="1" fill="none" points="230.66326530612244,999.795918367347 276.5816326530612,942.3979591836735"/>
 <polygon stroke="black" stroke-width="1" fill="none" points="230.66326530612244,999.795918367347 300.81632653061223,725.5612244897959"/>
 <polygon stroke="black" stroke-width="1" fill="none" points="230.66326530612244,999.795918367347 342.90816326530614,1008.7244897959183"/>
 <polygon stroke="black" stroke-width="1" fill="none" points="230.66326530612244,999.795918367347 362.0408163265306,989.5918367346939"/>
 <polygon stroke="black" stroke-width="1" fill="none" points="230.66326530612244,999.795918367347 476.83673469387753,933.469387755102"/>
 <polygon stroke="black" stroke-width="1" fill="none" points="252.3469387755102,187.29591836734693 276.5816326530612,503.6224489795918"/>
 <polygon stroke="black" stroke-width="1" fill="none" points="252.3469387755102,187.29591836734693 370.96938775510205,345.4591836734694"/>
 <polygon stroke="black" stroke-width="1" fill="none" points="252.3469387755102,187.29591836734693 411.7857142857143,456.42857142857144"/>
 <polygon stroke="black" stroke-width="1" fill="none" points="252.3469387755102,187.29591836734693 447.5,13.826530612244898"/>
 <polygon stroke="black" stroke-width="1" fill="none" points="257.44897959183675,979.3877551020408 276.5816326530612,942.3979591836735"/>
 <polygon stroke="black" stroke-width="1" fill="none" points="257.44897959183675,979.3877551020408 300.81632653061223,725.5612244897959"/>
 <polygon stroke="black" stroke-width="1" fill="none" points="257.44897959183675,979.3877551020408 342.90816326530614,1008.7244897959183"/>
 <polygon stroke="black" stroke-width="1" fill="none" points="257.44897959183675,979.3877551020408 362.0408163265306,989.5918367346939"/>
 <polygon stroke="black" stroke-width="1" fill="none" points="257.44897959183675,979.3877551020408 391.3775510204082,716.6326530612245"/>
 <polygon stroke="black" stroke-width="1" fill="none" points="257.44897959183675,979.3877551020408 476.83673469387753,933.469387755102"/>
 <polygon stroke="black" stroke-width="1" fill="none" points="276.5816326530612,942.3979591836735 300.81632653061223,725.5612244897959"/>
 <polygon stroke="black" stroke-width="1" fill="none" points="276.5816326530612,942.3979591836735 342.90816326530614,1008.7244897959183"/>
 <polygon stroke="black" stroke-width="1" fill="none" points="276.5816326530612,942.3979591836735 362.0408163265306,989.5918367346939"/>
 <polygon stroke="black" stroke-width="1" fill="none" points="276.5816326530612,942.3979591836735 391.3775510204082,716.6326530612245"/>
 <polygon stroke="black" stroke-width="1" fill="none" points="276.5816326530612,942.3979591836735 476.83673469387753,933.469387755102"/>
 <polygon stroke="black" stroke-width="1" fill="none" points="276.5816326530612,503.6224489795918 300.81632653061223,725.5612244897959"/>
 <polygon stroke="black" stroke-width="1" fill="none" points="276.5816326530612,503.6224489795918 370.96938775510205,345.4591836734694"/>
 <polygon stroke="black" stroke-width="1" fill="none" points="276.5816326530612,503.6224489795918 391.3775510204082,716.6326530612245"/>
 <polygon stroke="black" stroke-width="1" fill="none" points="276.5816326530612,503.6224489795918 411.7857142857143,456.42857142857144"/>
 <polygon stroke="black" stroke-width="1" fill="none" points="276.5816326530612,503.6224489795918 564.8469387755102,481.9387755102041"/>
 <polygon stroke="black" stroke-width="1" fill="none" points="300.81632653061223,725.5612244897959 342.90816326530614,1008.7244897959183"/>
 <polygon stroke="black" stroke-width="1" fill="none" points="300.81632653061223,725.5612244897959 362.0408163265306,989.5918367346939"/>
 <polygon stroke="black" stroke-width="1" fill="none" points="300.81632653061223,725.5612244897959 391.3775510204082,716.6326530612245"/>
 <polygon stroke="black" stroke-width="1" fill="none" points="300.81632653061223,725.5612244897959 411.7857142857143,456.42857142857144"/>
 <polygon stroke="black" stroke-width="1" fill="none" points="300.81632653061223,725.5612244897959 476.83673469387753,933.469387755102"/>
 <polygon stroke="black" stroke-width="1" fill="none" points="342.90816326530614,1008.7244897959183 362.0408163265306,989.5918367346939"/>
 <polygon stroke="black" stroke-width="1" fill="none" points="342.90816326530614,1008.7244897959183 391.3775510204082,716.6326530612245"/>
 <polygon stroke="black" stroke-width="1" fill="none" points="342.90816326530614,1008.7244897959183 476.83673469387753,933.469387755102"/>
 <polygon stroke="black" stroke-width="1" fill="none" points="362.0408163265306,989.5918367346939 391.3775510204082,716.6326530612245"/>
 <polygon stroke="black" stroke-width="1" fill="none" points="362.0408163265306,989.5918367346939 476.83673469387753,933.469387755102"/>
 <polygon stroke="black" stroke-width="1" fill="none" points="370.96938775510205,345.4591836734694 411.7857142857143,456.42857142857144"/>
 <polygon stroke="black" stroke-width="1" fill="none" points="370.96938775510205,345.4591836734694 564.8469387755102,481.9387755102041"/>
 <polygon stroke="black" stroke-width="1" fill="none" points="391.3775510204082,716.6326530612245 411.7857142857143,456.42857142857144"/>
 <polygon stroke="black" stroke-width="1" fill="none" points="391.3775510204082,716.6326530612245 476.83673469387753,933.469387755102"/>
 <polygon stroke="black" stroke-width="1" fill="none" points="391.3775510204082,716.6326530612245 564.8469387755102,481.9387755102041"/>
 <polygon stroke="black" stroke-width="1" fill="none" points="411.7857142857143,456.42857142857144 564.8469387755102,481.9387755102041"/>
 <polygon stroke="black" stroke-width="1" fill="none" points="564.8469387755102,481.9387755102041 733.2142857142857,447.5"/>
 <polygon stroke="black" stroke-width="1" fill="none" points="564.8469387755102,481.9387755102041 828.8775510204082,541.8877551020408"/>
 <polygon stroke="black" stroke-width="1" fill="none" points="733.2142857142857,447.5 828.8775510204082,541.8877551020408"/>
 <polygon stroke="black" stroke-width="1" fill="none" points="733.2142857142857,447.5 947.5,298.265306122449"/>
 <polygon stroke="black" stroke-width="1" fill="none" points="828.8775510204082,541.8877551020408 947.5,298.265306122449"/>
 <polygon stroke="black" stroke-width="1" fill="none" points="947.5,298.265306122449 947.5,76.3265306122449"/>
 <polygon stroke="black" stroke-width="1" fill="none" points="947.5,298.265306122449 1010.0,165.6122448979592"/>
 <polygon stroke="black" stroke-width="1" fill="none" points="947.5,76.3265306122449 1010.0,165.6122448979592"/>
 <circle stroke="green" fill="lightgreen" stroke-width="2" cx="10.0" cy="758.7244897959183" r="5">
  <title>41000126 I</title>
 </circle>
 <circle stroke="blue" stroke-width="2" cx="18.92857142857143" cy="873.5204081632653" r="3">
  <title>23000140</title>
 </circle>
 <circle stroke="blue" stroke-width="2" cx="129.89795918367346" cy="975.5612244897959" r="3">
  <title>7000314</title>
 </circle>
 <circle stroke="blue" stroke-width="2" cx="143.92857142857142" cy="911.7857142857143" r="3">
  <title>17000336</title>
 </circle>
 <circle stroke="blue" stroke-width="2" cx="186.0204081632653" cy="596.734693877551" r="3">
  <title>66400402</title>
 </circle>
 <circle stroke="blue" stroke-width="2" cx="193.6734693877551" cy="772.7551020408164" r="3">
  <title>38800414</title>
 </circle>
 <circle stroke="blue" stroke-width="2" cx="300.81632653061223" cy="725.5612244897959" r="3">
  <title>46200582</title>
 </circle>
 <circle stroke="green" fill="lightgreen" stroke-width="2" cx="230.66326530612244" cy="999.795918367347" r="5">
  <title>3200472 I</title>
 </circle>
 <circle stroke="blue" stroke-width="2" cx="257.44897959183675" cy="979.3877551020408" r="3">
  <title>6400514</title>
 </circle>
 <circle stroke="blue" stroke-width="2" cx="276.5816326530612" cy="942.3979591836735" r="3">
  <title>12200544</title>
 </circle>
 <circle stroke="blue" stroke-width="2" cx="62.295918367346935" cy="164.33673469387756" r="3">
  <title>134200208</title>
 </circle>
 <circle stroke="green" fill="lightgreen" stroke-width="2" cx="66.12244897959184" cy="330.1530612244898" r="5">
  <title>108200214 I</title>
 </circle>
 <circle stroke="green" fill="lightgreen" stroke-width="2" cx="149.03061224489795" cy="10.0" r="5">
  <title>158400344 I</title>
 </circle>
 <circle stroke="blue" stroke-width="2" cx="166.8877551020408" cy="138.8265306122449" r="3">
  <title>138200372</title>
 </circle>
 <circle stroke="blue" stroke-width="2" cx="252.3469387755102" cy="187.29591836734693" r="3">
  <title>130600506</title>
 </circle>
 <circle stroke="blue" stroke-width="2" cx="276.5816326530612" cy="503.6224489795918" r="3">
  <title>81000544</title>
 </circle>
 <circle stroke="blue" stroke-width="2" cx="370.96938775510205" cy="345.4591836734694" r="3">
  <title>105800692</title>
 </circle>
 <circle stroke="blue" stroke-width="2" cx="342.90816326530614" cy="1008.7244897959183" r="3">
  <title>1800648</title>
 </circle>
 <circle stroke="blue" stroke-width="2" cx="362.0408163265306" cy="989.5918367346939" r="3">
  <title>4800678</title>
 </circle>
 <circle stroke="green" fill="lightgreen" stroke-width="2" cx="391.3775510204082" cy="716.6326530612245" r="5">
  <title>47600724 I</title>
 </circle>
 <circle stroke="blue" stroke-width="2" cx="447.5" cy="13.826530612244898" r="3">
  <title>157800812</title>
 </circle>
 <circle stroke="blue" stroke-width="2" cx="411.7857142857143" cy="456.42857142857144" r="3">
  <title>88400756</title>
 </circle>
 <circle stroke="blue" stroke-width="2" cx="476.83673469387753" cy="933.469387755102" r="3">
  <title>13600858</title>
 </circle>
 <circle stroke="blue" stroke-width="2" cx="564.8469387755102" cy="481.9387755102041" r="3">
  <title>84400996</title>
 </circle>
 <circle stroke="green" fill="lightgreen" stroke-width="2" cx="733.2142857142857" cy="447.5" r="5">
  <title>89801260 I</title>
 </circle>
 <circle stroke="blue" stroke-width="2" cx="828.8775510204082" cy="541.8877551020408" r="3">
  <title>75001410</title>
 </circle>
 <circle stroke="blue" stroke-width="2" cx="947.5" cy="298.265306122449" r="3">
  <title>113201596</title>
 </circle>
 <circle stroke="green" fill="lightgreen" stroke-width="2" cx="947.5" cy="76.3265306122449" r="5">
  <title>148001596 I</title>
 </circle>
 <circle stroke="blue" stroke-width="2" cx="1010.0" cy="165.6122448979592" r="3">
  <title>134001694</title>
 </circle>
</svg>
